<?xml version="1.0" standalone="no"?>
<!DOCTYPE svg PUBLIC "-//W3C//DTD SVG 20010904//EN"
 "http://www.w3.org/TR/2001/REC-SVG-20010904/DTD/svg10.dtd">
<svg version="1.0" xmlns="http://www.w3.org/2000/svg"
 width="16.000000pt" height="16.000000pt" viewBox="0 0 16.000000 16.000000"
 preserveAspectRatio="xMidYMid meet">
<metadata>
Created by potrace 1.11, written by Peter Selinger 2001-2013
</metadata>
<g transform="translate(0.000000,16.000000) scale(0.002305,-0.002305)"
fill="#000000" stroke="none">
<path d="M1950 6928 c-11 -4 -21 -13 -21 -20 -1 -7 -2 -679 -3 -1493 l-1
-1479 -175 -1 c-147 -1 -181 -4 -213 -19 -79 -38 -123 -135 -103 -225 14 -61
80 -128 136 -137 49 -8 47 -11 -50 -54 -41 -18 -115 -52 -165 -75 -49 -23
-129 -59 -176 -79 -108 -47 -151 -82 -184 -153 -23 -47 -26 -67 -23 -117 2
-34 12 -77 21 -96 10 -19 132 -190 272 -380 141 -190 290 -392 332 -450 43
-58 121 -164 175 -236 l97 -131 2 -74 c4 -131 45 -234 124 -308 43 -40 132
-91 160 -91 13 0 15 -31 15 -243 0 -192 3 -255 16 -296 29 -99 67 -154 147
-215 38 -29 340 -181 380 -191 18 -5 28 -19 40 -58 45 -144 177 -263 327 -296
71 -16 723 -13 792 3 144 35 270 152 315 293 13 41 22 53 42 58 40 10 327 154
374 188 51 37 79 68 112 124 47 78 55 137 55 395 0 207 2 238 15 238 27 0 110
47 156 89 82 73 124 175 128 311 2 75 5 82 63 155 5 6 46 62 93 125 46 63 111
151 143 195 33 44 117 157 186 252 70 95 170 230 222 300 171 230 186 257 191
332 3 41 0 78 -8 96 -7 17 -12 33 -11 37 1 4 -20 29 -46 55 -34 33 -76 60
-138 87 -49 22 -129 59 -179 82 -49 22 -124 56 -165 74 -95 41 -100 46 -52 54
42 6 99 52 122 96 36 68 27 147 -24 214 -46 61 -80 69 -276 71 l-175 1 0 1486
c0 1201 -3 1490 -13 1500 -10 10 -303 13 -1523 13 -830 0 -1519 -3 -1529 -7z"/>
</g>
</svg>
